<?xml version="1.0" standalone="no"?>
<!DOCTYPE svg PUBLIC "-//W3C//DTD SVG 20010904//EN"
 "http://www.w3.org/TR/2001/REC-SVG-20010904/DTD/svg10.dtd">
<svg version="1.0" xmlns="http://www.w3.org/2000/svg"
 width="512.000000pt" height="512.000000pt" viewBox="0 0 512.000000 512.000000"
 preserveAspectRatio="xMidYMid meet">
<metadata>
Created by potrace 1.11, written by Peter Selinger 2001-2013
</metadata>
<g transform="translate(0.000000,512.000000) scale(0.100000,-0.100000)"
fill="#000000" stroke="none">
<path d="M2034 5099 c-224 -48 -417 -141 -674 -324 -47 -34 -98 -67 -115 -75
-42 -21 -62 -37 -125 -101 -125 -126 -176 -331 -125 -503 8 -27 15 -51 15 -52
0 -1 -17 -5 -37 -9 -181 -34 -384 -205 -471 -395 -53 -117 -71 -301 -43 -432
l12 -58 -46 -57 c-139 -170 -191 -413 -135 -625 16 -59 49 -136 76 -177 l22
-33 -29 -55 c-99 -183 -117 -382 -53 -581 43 -131 142 -263 260 -342 27 -18
51 -35 53 -36 2 -2 4 -45 4 -96 -1 -51 5 -122 13 -158 14 -68 72 -223 86 -228
4 -2 8 -8 8 -14 0 -19 63 -101 128 -164 73 -71 201 -156 267 -175 33 -10 48
-22 70 -58 41 -66 171 -190 246 -234 76 -45 197 -92 259 -102 85 -13 234 -13
302 1 209 43 399 171 508 343 25 39 47 70 50 70 3 0 25 -31 49 -69 43 -67 178
-210 199 -210 5 0 15 -7 22 -15 12 -14 96 -58 165 -86 72 -29 191 -46 300 -44
122 3 218 26 317 75 33 17 65 27 71 23 5 -3 7 -1 4 4 -4 6 12 23 35 38 56 37
158 139 197 197 22 33 45 53 77 68 26 11 50 20 55 20 20 0 162 104 218 160 64
65 127 151 150 207 7 18 18 30 24 26 6 -3 7 -1 3 6 -4 6 1 35 12 64 26 69 43
185 41 275 -1 40 0 74 2 76 2 1 25 17 52 35 184 124 299 346 298 573 0 82 -2
92 -26 208 -1 3 -9 22 -18 44 -9 21 -17 41 -17 44 0 2 -13 26 -29 52 l-30 48
34 64 c64 121 86 208 87 338 0 158 -46 292 -144 423 l-59 78 12 57 c28 128 11
309 -40 423 -11 24 -17 47 -14 53 3 5 1 6 -5 2 -7 -4 -12 -2 -12 4 0 39 -148
200 -235 255 -61 40 -156 80 -208 90 -26 5 -37 12 -33 21 66 172 23 396 -102
533 -45 49 -138 121 -156 121 -4 0 -40 24 -80 53 -281 211 -578 339 -817 353
-143 8 -252 -30 -346 -121 l-53 -51 -37 39 c-46 47 -114 91 -173 113 -64 23
-216 25 -316 3z m293 -176 c49 -23 96 -71 124 -129 l24 -49 1 -562 c1 -310 0
-563 -2 -563 -2 0 -29 13 -61 29 -66 33 -120 49 -178 52 -59 3 -85 -9 -101
-46 -26 -64 11 -108 101 -120 112 -15 191 -81 228 -189 7 -21 11 -376 12
-1049 l2 -1019 -57 60 c-69 74 -169 141 -267 182 -84 35 -117 41 -151 26 -47
-20 -61 -89 -26 -127 8 -9 43 -27 77 -40 170 -63 300 -183 370 -341 35 -78 50
-152 51 -243 0 -91 -21 -208 -37 -198 -6 3 -7 1 -3 -6 15 -23 -66 -163 -134
-232 -57 -57 -168 -136 -203 -143 -7 -2 -23 -8 -37 -13 -23 -10 -42 -15 -110
-28 -51 -11 -187 -5 -245 10 -133 35 -235 98 -326 202 -42 47 -61 81 -54 93 4
6 3 9 -2 8 -4 -2 -20 9 -34 23 -14 14 -49 34 -79 44 -208 69 -369 258 -416
490 -7 36 -7 169 1 213 9 55 -8 82 -80 123 -61 34 -141 105 -137 120 1 6 -2 8
-8 4 -16 -10 -89 112 -113 190 -30 97 -29 234 3 325 31 87 43 105 62 88 49
-46 167 -109 249 -132 117 -33 219 -38 249 -11 25 22 35 76 21 104 -17 30 -40
39 -114 46 -288 24 -507 272 -492 560 7 147 60 258 179 377 40 40 46 77 23
144 -25 71 -29 97 -15 88 9 -6 9 -3 -1 9 -20 25 -8 166 20 242 81 220 283 359
512 354 149 -4 254 -48 363 -154 85 -84 134 -171 150 -270 3 -16 9 -57 14 -89
14 -87 60 -121 122 -90 45 23 52 67 33 194 -27 173 -157 371 -304 461 -106 65
-226 109 -301 111 -39 1 -55 21 -75 92 -42 144 15 304 140 393 92 65 243 78
348 30 53 -24 147 -100 147 -119 0 -10 13 -27 53 -70 23 -26 33 -29 60 -24 37
7 77 48 77 79 0 35 -56 124 -115 181 -52 50 -149 111 -201 125 -13 3 -23 11
-23 16 1 13 122 77 225 120 99 41 186 64 268 72 33 3 62 6 64 8 6 6 96 -16
129 -32z m765 6 c137 -36 410 -162 391 -180 -5 -3 -26 -12 -48 -19 -98 -31
-225 -142 -271 -237 -31 -63 -27 -93 18 -126 41 -31 84 -14 125 47 49 75 92
114 163 149 58 29 74 32 150 31 74 0 95 -4 150 -30 125 -59 198 -166 207 -303
4 -62 1 -87 -17 -133 -12 -32 -26 -60 -31 -64 -6 -3 -49 -14 -97 -24 -248 -50
-442 -226 -526 -473 -29 -87 -40 -211 -21 -247 29 -56 105 -60 138 -8 12 18
22 84 27 166 0 2 5 0 12 -4 7 -5 8 -3 3 5 -8 13 13 101 24 101 4 0 13 16 20
36 21 57 176 205 231 219 3 1 21 9 41 18 50 22 81 28 181 34 71 4 100 1 160
-17 95 -28 183 -82 239 -145 10 -11 28 -31 40 -45 33 -38 86 -158 99 -227 14
-72 8 -187 -14 -257 -25 -79 -21 -103 24 -149 126 -126 183 -263 175 -422 -4
-91 -19 -144 -62 -227 -85 -162 -247 -266 -443 -285 -88 -8 -117 -36 -105 -99
8 -46 41 -66 107 -65 135 3 270 51 390 138 l48 35 10 -26 c5 -14 15 -38 21
-53 33 -81 43 -210 24 -313 -4 -19 -23 -69 -42 -110 -43 -89 -137 -189 -225
-238 -75 -41 -92 -68 -83 -124 12 -70 8 -189 -10 -258 -53 -212 -192 -364
-407 -446 -65 -25 -72 -30 -113 -93 -148 -229 -411 -338 -669 -277 -72 17
-196 72 -196 87 0 5 -7 9 -15 9 -9 0 -48 33 -88 73 -83 83 -145 196 -170 307
-19 90 -19 2981 1 3047 28 96 115 163 233 182 77 13 103 35 102 87 -3 108
-138 107 -344 -4 -10 -5 -5 371 5 387 6 9 5 12 -1 8 -7 -4 -10 57 -9 186 2
216 11 251 78 319 82 82 207 101 370 57z"/>
<path d="M1115 3431 c-33 -14 -48 -39 -50 -85 -2 -37 8 -125 19 -161 2 -5 6
-23 11 -40 4 -16 25 -64 46 -106 21 -43 35 -80 31 -85 -4 -4 -1 -4 6 0 6 4 12
3 12 -1 0 -15 123 -138 170 -170 69 -47 141 -81 219 -102 39 -11 75 -21 79
-23 13 -5 1 -51 -25 -95 -58 -99 -159 -165 -278 -182 -44 -7 -75 -17 -89 -30
-28 -27 -31 -79 -7 -110 26 -34 100 -36 202 -7 178 51 306 176 360 350 23 73
23 74 63 81 68 13 72 14 128 35 76 28 169 86 226 141 60 58 67 97 23 138 -48
45 -77 35 -194 -63 -81 -69 -253 -108 -384 -88 -230 36 -426 235 -449 456 -9
92 -14 113 -32 129 -22 20 -62 28 -87 18z"/>
<path d="M1875 2019 c-184 -22 -313 -85 -437 -211 -118 -120 -196 -303 -198
-461 l0 -39 -55 5 c-104 9 -157 -62 -100 -134 15 -19 31 -25 65 -27 148 -9
271 -62 370 -161 73 -73 132 -179 146 -261 4 -25 9 -48 10 -52 1 -5 2 -26 3
-49 1 -30 8 -48 30 -70 36 -35 70 -37 107 -5 25 21 28 30 27 83 0 60 -28 208
-42 228 -4 6 -14 26 -21 45 -46 116 -189 263 -320 330 -55 28 -57 30 -54 83 6
109 36 220 69 257 8 9 15 21 15 26 0 18 86 108 142 150 92 67 171 92 326 103
7 1 24 12 37 26 33 32 34 84 3 112 -30 27 -51 30 -123 22z"/>
<path d="M4099 3500 c-21 -21 -29 -39 -30 -67 -2 -89 -33 -194 -81 -269 -47
-75 -143 -160 -222 -199 -82 -40 -102 -45 -211 -52 -135 -9 -257 33 -372 127
-72 59 -109 67 -148 30 -34 -32 -33 -79 1 -120 68 -80 230 -168 356 -192 l66
-12 11 -51 c46 -200 237 -365 454 -391 68 -7 100 2 120 35 34 58 -3 119 -76
127 -63 7 -97 15 -144 36 -52 23 -140 107 -162 153 -7 17 -17 38 -22 47 -15
29 -10 48 11 49 21 2 38 5 43 9 1 1 9 3 18 5 34 6 143 55 195 86 64 39 160
130 203 192 89 130 147 342 118 430 -18 55 -86 70 -128 27z"/>
<path d="M2873 2189 c-29 -15 -47 -68 -34 -100 14 -38 35 -50 93 -55 174 -16
311 -87 408 -213 66 -86 110 -215 110 -324 0 -52 -2 -55 -31 -67 -54 -23 -142
-85 -199 -141 -126 -125 -203 -294 -209 -466 -2 -55 1 -65 23 -88 38 -38 102
-31 126 16 6 11 13 43 16 72 13 140 57 239 149 334 112 115 230 166 398 172
10 1 29 12 42 26 33 32 33 78 0 111 -22 22 -33 25 -80 23 -30 -1 -58 0 -62 4
-3 4 -8 24 -10 45 -12 124 -22 164 -65 262 -62 139 -231 298 -370 348 -26 9
-48 20 -48 25 0 4 -4 6 -9 3 -4 -3 -23 -1 -42 5 -53 15 -181 20 -206 8z"/>
</g>
</svg>
